<svg id="visual" viewBox="0 0 900 600" width="900" height="600" xmlns="http://www.w3.org/2000/svg" xmlns:xlink="http://www.w3.org/1999/xlink" version="1.1"><rect x="0" y="0" width="900" height="600" fill="#212121"></rect><defs><linearGradient id="grad1_0" x1="33.3%" y1="0%" x2="100%" y2="100%"><stop offset="20%" stop-color="#212121" stop-opacity="1"></stop><stop offset="80%" stop-color="#212121" stop-opacity="1"></stop></linearGradient></defs><defs><linearGradient id="grad2_0" x1="0%" y1="0%" x2="66.7%" y2="100%"><stop offset="20%" stop-color="#212121" stop-opacity="1"></stop><stop offset="80%" stop-color="#212121" stop-opacity="1"></stop></linearGradient></defs><g transform="translate(900, 0)"><path d="M0 486.7C-55.8 466.4 -111.5 446 -177.2 427.8C-242.9 409.5 -318.5 393.4 -344.2 344.2C-369.9 294.9 -345.8 212.5 -361.2 149.6C-376.7 86.7 -431.7 43.4 -486.7 0L0 0Z" fill="#05a2e1"></path></g><g transform="translate(0, 600)"><path d="M0 -486.7C59.2 -469.5 118.5 -452.2 178.7 -431.5C238.9 -410.7 300.1 -386.6 344.2 -344.2C388.2 -301.8 415.2 -241 436.1 -180.6C457 -120.2 471.9 -60.1 486.7 0L0 0Z" fill="#05a2e1"></path></g></svg>