<svg id="visual" viewBox="0 0 900 1400" width="900" height="1400" xmlns="http://www.w3.org/2000/svg" xmlns:xlink="http://www.w3.org/1999/xlink" version="1.1"><rect x="0" y="0" width="900" height="600" fill="#212121"></rect><path d="M0 495L21.5 487C43 479 86 463 128.8 455.2C171.7 447.3 214.3 447.7 257.2 456.2C300 464.7 343 481.3 385.8 490.5C428.7 499.7 471.3 501.3 514.2 501.7C557 502 600 501 642.8 495.7C685.7 490.3 728.3 480.7 771.2 480.3C814 480 857 489 878.5 493.5L900 498L900 601L878.5 601C857 601 814 601 771.2 601C728.3 601 685.7 601 642.8 601C600 601 557 601 514.2 601C471.3 601 428.7 601 385.8 601C343 601 300 601 257.2 601C214.3 601 171.7 601 128.8 601C86 601 43 601 21.5 601L0 601Z" fill="#05a2e1" stroke-linecap="round" stroke-linejoin="miter"></path></svg>